<svg width="24" height="24" viewBox="0 0 24 24" fill="none" xmlns="http://www.w3.org/2000/svg">
<path fill-rule="evenodd" clip-rule="evenodd" d="M12.6476 15.6026C12.0306 16.357 11.1957 16.8966 10.25 17.105V20.05C10.25 20.5747 9.85824 21 9.375 21C8.89175 21 8.5 20.5747 8.5 20.05V17.105C6.50304 16.6649 5 14.748 5 12.45V6.75C5 4.12665 6.95876 2 9.375 2C11.6576 2 13.5319 3.89792 13.7322 6.31958C14.251 5.98933 14.8552 5.8 15.5 5.8C17.433 5.8 19 7.50132 19 9.6V13.4C19 15.1706 17.8845 16.6584 16.375 17.0803V20.05C16.375 20.5747 15.9833 21 15.5 21C15.0167 21 14.625 20.5747 14.625 20.05V17.0803C13.8154 16.854 13.1191 16.3212 12.6476 15.6026ZM12 6.75V12.45C12 13.6909 11.2695 14.7466 10.25 15.1378V12.45C10.25 11.9253 9.85824 11.5 9.375 11.5C8.89175 11.5 8.5 11.9253 8.5 12.45V15.1378C7.48046 14.7466 6.75 13.6909 6.75 12.45V6.75C6.75 5.17599 7.92526 3.9 9.375 3.9C10.8248 3.9 12 5.17599 12 6.75ZM16.375 15.0458V12.45C16.375 11.9253 15.9833 11.5 15.5 11.5C15.0167 11.5 14.625 11.9253 14.625 12.45V15.0458C14.1019 14.7173 13.75 14.1033 13.75 13.4V9.6C13.75 8.55066 14.5335 7.7 15.5 7.7C16.4665 7.7 17.25 8.55066 17.25 9.6V13.4C17.25 14.1033 16.8981 14.7173 16.375 15.0458Z" fill="#656565"/>
</svg>
