<svg width="48" height="48" viewBox="0 0 48 48" fill="none" xmlns="http://www.w3.org/2000/svg">
<path d="M24 33L23.2929 33.7071L24 34.4142L24.7071 33.7071L24 33ZM17.2929 27.7071L23.2929 33.7071L24.7071 32.2929L18.7071 26.2929L17.2929 27.7071ZM24.7071 33.7071L30.7071 27.7071L29.2929 26.2929L23.2929 32.2929L24.7071 33.7071Z" fill="#151515"/>
<path d="M24 21L23.2929 21.7071L24 22.4142L24.7071 21.7071L24 21ZM17.2929 15.7071L23.2929 21.7071L24.7071 20.2929L18.7071 14.2929L17.2929 15.7071ZM24.7071 21.7071L30.7071 15.7071L29.2929 14.2929L23.2929 20.2929L24.7071 21.7071Z" fill="#151515"/>
</svg>
